STARTFONT 2.1
COMMENT
COMMENT Converted from OpenType font "meteocons-webfont.ttf" by ".\otf2bdf 3.0".
COMMENT
FONT -FreeType-Meteocons-Medium-R-Normal--48-480-72-72-P-320-ISO10646-1
SIZE 48 72 72
FONTBOUNDINGBOX 48 48 0 -3
STARTPROPERTIES 19
FOUNDRY "FreeType"
FAMILY_NAME "Meteocons"
WEIGHT_NAME "Medium"
SLANT "R"
SETWIDTH_NAME "Normal"
ADD_STYLE_NAME ""
PIXEL_SIZE 48
POINT_SIZE 480
RESOLUTION_X 72
RESOLUTION_Y 72
SPACING "P"
AVERAGE_WIDTH 320
CHARSET_REGISTRY "ISO10646"
CHARSET_ENCODING "1"
FONT_ASCENT 45
FONT_DESCENT 3
COPYRIGHT "Copyright 2012 Adobe Systems Incorporated. All rights reserved."
_OTF_FONTFILE "meteocons-webfont.ttf"
_OTF_PSNAME "Meteocons"
ENDPROPERTIES
CHARS 63
STARTCHAR 0020
ENCODING 32
SWIDTH 500 0
DWIDTH 24 0
BBX 0 0 0 0
BITMAP
ENDCHAR
STARTCHAR 0021
ENCODING 33
SWIDTH 1000 0
DWIDTH 48 0
BBX 48 42 0 0
BITMAP
0000001FC000
0000007FF000
000001FFFC00
000003FFFE00
00003FFFFFE0
00007FFFFFF0
0001FFFFFFF8
0001FFFFFFFC
0003FFFFFFFE
1FF3FFFFFFFE
1FF7FFFFFFFF
1FF7FFFFFFFF
0007FFFFFFFF
0007FFFFFFFF
0007FFFFFFFF
FF87FFFFFFFF
FF83FFFFFFFE
FF83FFFFFFFE
0001FFFFFFFC
0000FFFFFFF8
00007FFFFFF0
FFFE1FFFFFC0
FFFE007FF000
FFFE001FC000
000000000000
000000000000
000000000000
000001000000
000001800000
000003C00000
000003C00000
000007E00000
000007E00000
000007E01000
000007E01800
000003C03C00
000000003C00
000000007E00
000000007E00
000000007E00
000000007E00
000000003C00
ENDCHAR
STARTCHAR 0022
ENCODING 34
SWIDTH 1000 0
DWIDTH 48 0
BBX 48 48 0 -3
BITMAP
00000FF00000
00007FFE0000
0000FFFF0000
0003FFFFC000
0007FFFFE000
000FFFFFF000
01FFFFFFFF80
07FFFFFFFFE0
0FFFFFFFFFF0
1FFFFFFFFFF8
3FFFFFFFFFFC
7FFFFFFFFFFE
7FFFFFFFFFFE
FFFFFFFFFFFF
FFFFFFFFFFFF
FFFFFFFFFFFF
FFFFFFFFFFFF
FFFFFFFFFFFF
FFFFFFFFFFFF
FFFFFFFFFFFF
7FFFFFFFFFFE
7FFFFFFFFFFE
3FFFFFFFFFFC
1FFFFFFFFFF8
0FFFFFFFFFF0
07FFFFFFFFE0
01FFFFFFFF80
0000FFFF0000
00007FFE0000
00000FF00000
000000000000
000001800000
000003C00000
000003C00000
000023C40000
000077EE0000
00007FFE0000
00007FFE0000
00001E780000
00001C380000
00001E780000
00007FFE0000
00007FFE0000
00007FFE0000
000023C40000
000003C00000
000003C00000
000001800000
ENDCHAR
STARTCHAR 0023
ENCODING 35
SWIDTH 1000 0
DWIDTH 48 0
BBX 48 48 0 -3
BITMAP
00000FF00000
00007FFE0000
0000FFFF0000
0003FFFFC000
0007FFFFE000
000FFFFFF000
01FFFFFFFF80
07FFFFFFFFE0
0FFFFFFFFFF0
1FFFFFFFFFF8
3FFFFFFFFFFC
7FFFFFFFFFFE
7FFFFFFFFFFE
FFFFFFFFFFFF
FFFFFFFFFFFF
FFFFFFFFFFFF
FFFFFFFFFFFF
FFFFFFFFFFFF
FFFFFFFFFFFF
FFFFFFFFFFFF
7FFFFFFFFFFE
7FFFFFFFFFFE
3FFFFFFFFFFC
1FFFFFFFFFF8
0FFFFFFFFFF0
07FFFFFFFFE0
01FFFFFFFF80
0000FFFF0000
00007FFE0000
00800FF00000
08C000000000
0F8000000000
07F003C00100
06F003C00310
1EC003C001F0
1FC077EE0FE0
03E07FFE0F60
03207FFE0278
02001E7803F8
00001C3807C0
00001E7804C0
00003FFC0040
00007FFE0000
00007FFE0000
000023C40000
000003C00000
000003C00000
000001800000
ENDCHAR
STARTCHAR 0024
ENCODING 36
SWIDTH 1000 0
DWIDTH 48 0
BBX 48 48 0 -3
BITMAP
00000FF00000
00007FFE0000
0000FFFF0000
0003FFFFC000
0007FFFFE000
000FFFFFF000
01FFFFFFFF80
07FFFFFFFFE0
0FFFFFFFFFF0
1FFFFFFFFFF8
3FFFFFFFFFFC
7FFFFFFFFFFE
7FFFFFFFFFFE
FFFFFFFFFFFF
FFFFFFFFFFFF
FFFFFFFFFFFF
FFFFFFFFFFFF
FFFFFFFFFFFF
FFFFFFFFFFFF
FFFFFFFFFFFF
7FFFFFFFFFFE
7FFFFFFFFFFE
3FFFFFFFFFFC
1FFFFFFFFFF8
0FFFFFFFFFF0
07FFFFFFFFE0
01FFFFFFFF80
0000FFFF0000
00007FFE0000
00000FF00000
01E000000780
03F000000FC0
03F000000FC0
03F003C00FC0
03F007E00FC0
01E007E00780
000007E00000
000007E00000
000003C00000
000000000000
000000000000
000000000000
00078001E000
000FC003F000
000FC003F000
000FC003F000
000FC003F000
00078001E000
ENDCHAR
STARTCHAR 0025
ENCODING 37
SWIDTH 1000 0
DWIDTH 48 0
BBX 48 38 0 2
BITMAP
0000001FC000
000000FFF000
000001FFF800
000003FFFE00
00003FFFFFE0
0000FFFFFFF8
0001FFFFFFFC
0003FFFFFFFC
0007FFFFFFFE
0007FFFFFFFF
000FFFFFFFFF
000FFFFFFFFF
000FFFFFFFFF
000FFFFFFFFF
01FFFFFFFFFF
07FFFFFFFFFF
0FFFFFFFFFFE
1FFFFFFFFFFC
3FFFFFFFFFFC
7FFFFFFFFFFE
7FFFFFFFFFFE
FFFFFFFFFFFF
FFFFFFFFFFFF
FFFFFFFFFFFF
FFFFFFFFFFFF
FFFFFFFFFFFF
FFFFFFFFFFFF
FFFFFFFFFFFF
7FFFFFFFFFFE
7FFFFFFFFFFE
3FFFFFFFFFFC
1FFFFFFFFFF8
0FFFFFFFFFF0
07FFFFFFFFE0
01FDFFFFFF80
0000FFFF0000
00007FFE0000
00000FF00000
ENDCHAR
STARTCHAR 0026
ENCODING 38
SWIDTH 1000 0
DWIDTH 48 0
BBX 48 48 0 -3
BITMAP
0000001F8000
000000FFF000
000001FFF800
000003FFFC00
00001FFFFF80
0000FFFFFFF0
0001FFFFFFF8
0003FFFFFFFC
0007FFFFFFFE
0007FFFFFFFE
000FFFFFFFFF
000FFFFFFFFF
000FFFFFFFFF
000FFFFFFFFF
00FFFFFFFFFF
07FFFFFFFFFF
0FFFFFFFFFFE
1FFFFFFFFFFC
3FFFFFFFFFFC
7FFFFFFFFFFE
7FFFFFFFFFFE
FFFFFFFFFFFF
FFFFFFFFFFFF
FFFFFFFFFFFF
FFFFFFFFFFFF
FFFFFFFFFFFF
FFFFFFFFFFFF
FFFFFFFFFFFF
7FFFFFFFFFFE
7FFFFFFFFFFE
3FFFFFFFFFFC
1FFFFFFFFFF8
0FFFFFFFFFF0
07FFFFFFFFE0
01FFFFFFFF80
0000FFFF0000
00007FFE0000
00000FF00000
00001F000000
00003F800000
00001FC00000
00000FE00000
000007C00000
00000F800000
00000E000000
00001C000000
000010000000
000020000000
ENDCHAR
STARTCHAR 0027
ENCODING 39
SWIDTH 1000 0
DWIDTH 48 0
BBX 12 42 18 0
BITMAP
0F00
1F80
1F80
1F80
1F80
1F80
1F80
1F80
1F80
1F80
1F80
1F80
1F80
1F80
1F80
1F80
1F80
1F80
1F80
1F80
1F80
1F80
1F80
1F80
1F80
1F80
1F80
1F80
1F80
1F80
1F80
3FC0
7FE0
FFF0
FFF0
FFF0
FFF0
FFF0
7FE0
7FE0
3FC0
0F00
ENDCHAR
STARTCHAR 0028
ENCODING 40
SWIDTH 1000 0
DWIDTH 48 0
BBX 48 48 0 -3
BITMAP
00001FF80000
0001FFFF8000
0007FFFFE000
001FFFFFF800
003FFFFFFC00
007FFFFFFE00
00FFF00FFF00
01FF8001FF80
03FE00007FC0
07F800001FE0
0FF000000FF0
1FE0000007F8
1FC0000003F8
3F80000001FC
3F80000001FC
7F00000080FE
7F00000300FE
7E00000F007E
7E00003E007E
FE0000FE007F
FC0003FC003F
FC0007FC003F
FC000FF8003F
FC000FF8003F
FC001FF0003F
FC001FF0003F
FC003FE0003F
FC003FC0003F
FE007F00007F
7E007C00007E
7E00F000007E
7F00C00000FE
7F01000000FE
3F80000001FC
3F80000001FC
1FC0000003F8
1FE0000007F8
0FF000000FF0
07F800001FE0
03FE00007FC0
01FF8001FF80
00FFF00FFF00
007FFFFFFE00
003FFFFFFC00
001FFFFFF800
0007FFFFE000
0001FFFF8000
00001FF80000
ENDCHAR
STARTCHAR 0029
ENCODING 41
SWIDTH 1000 0
DWIDTH 48 0
BBX 38 18 5 12
BITMAP
00000E0000
E0380C0780
F0381C0F80
F8381C0F80
F838180FC0
FC38381DC0
FE38381DC0
EE38301CE0
E7387038E0
E7B87038E0
E3B8603870
E1F8E07FF0
E1F8E07FF8
E0F8C0FFF8
E079C0F038
E079C0E03C
E03981E03C
0003800000
ENDCHAR
STARTCHAR 002A
ENCODING 42
SWIDTH 1000 0
DWIDTH 48 0
BBX 22 17 13 13
BITMAP
3C03F0
7E0FFC
E71FF8
C31E18
E73C00
7E3C00
3C3C00
003C00
003C00
003C00
003C00
003C00
003C00
001E18
001FF8
000FFC
0003F0
ENDCHAR
STARTCHAR 002B
ENCODING 43
SWIDTH 1000 0
DWIDTH 48 0
BBX 22 16 13 13
BITMAP
3C3FFC
7E3FFC
C73FFC
C33C00
E63C00
7E3C00
3C3C00
003FF8
003FF8
003FF8
003C00
003C00
003C00
003C00
003C00
003C00
ENDCHAR
STARTCHAR 0030
ENCODING 48
SWIDTH 1000 0
DWIDTH 48 0
BBX 48 48 0 -3
BITMAP
0000001F8000
0000007FE000
000001FFF800
000003E07C00
000007801E00
00007F000FE0
0001FE0007F8
0003FE0007FC
0007CFF0003E
00077FFE000E
000EFFFF000F
000FF01FC007
000FC003E007
000F8001F007
01FF0000FF87
07FE00007FEE
0FFC00003FFE
1F00000000FC
3C000000003C
78000000001E
70000000000E
F0000000000F
E00000000007
E00000000007
E00000000007
E00000000007
E00000000007
F0000000000F
70000000000E
78000000001E
3C000020003C
1F070040E0F8
0FFF81C1FFF0
07FF0383FFE0
01FE0F8FBF80
00001F0F0000
00003F860000
00000FC00000
000007E00000
000007C00000
00000F800000
00000F000000
00000E000000
00001C000000
000018000000
000010000000
000020000000
000020000000
ENDCHAR
STARTCHAR 0031
ENCODING 49
SWIDTH 1000 0
DWIDTH 48 0
BBX 40 38 4 2
BITMAP
0000180000
00003C0000
00003C0000
00003C0000
00003C0000
03801801C0
03C00003C0
03E00007C0
01E0000780
00C0FF0300
0003FFC000
0007FFE000
000FFFF000
001FFFF800
003FFFFC00
003FFFFC00
003FFFFC00
7C3FFFFC3E
FE7FFFFC7F
7C3FFFFC3E
003FFFFC00
003FFFFC00
003FFFFC00
001FFFF800
001FFFF800
000FFFF000
0007FFE000
0001FF8000
00E07E0700
01E0000780
03C00003C0
03800001C0
0000180000
00003C0000
00003C0000
00003C0000
00003C0000
0000180000
ENDCHAR
STARTCHAR 0032
ENCODING 50
SWIDTH 1000 0
DWIDTH 48 0
BBX 20 20 14 11
BITMAP
060000
0C0000
1C0000
3C0000
7C0000
7C0000
FE0000
FE0000
FF0000
FF0000
FF8000
FFC000
FFF000
FFFC10
7FFFF0
3FFFE0
3FFFC0
1FFF80
07FF00
03FC00
ENDCHAR
STARTCHAR 0033
ENCODING 51
SWIDTH 1000 0
DWIDTH 48 0
BBX 48 48 0 -3
BITMAP
000038000000
000038000000
000038000000
000038000000
000038000000
000038018000
07000003C000
07800007C000
03C000078000
01C0FE070000
00C3FF800000
0007FFC00000
000F83E00000
001E00F00000
003C00780000
003800380000
0078003C0000
0070001C0000
FC700FFC7E00
FC707FFC7E00
FC70FFFF7E00
0073FFFFC000
007FFFFFE000
003FFFFFF000
01FFFFFFFF80
07FFFFFFFFE0
0FFFFFFFFFF0
1FFFFFFFFFF8
3FFFFFFFFFFC
7FFFFFFFFFFE
7FFFFFFFFFFE
FFFFFFFFFFFF
FFFFFFFFFFFF
FFFFFFFFFFFF
FFFFFFFFFFFF
FFFFFFFFFFFF
FFFFFFFFFFFF
FFFFFFFFFFFF
7FFFFFFFFFFE
7FFFFFFFFFFE
3FFFFFFFFFFC
1FFFFFFFFFF8
0FFFFFFFFFF0
07FFFFFFFFE0
01FFFFFFFF80
0000FFFF0000
00007FFE0000
00000FF00000
ENDCHAR
STARTCHAR 0034
ENCODING 52
SWIDTH 1000 0
DWIDTH 48 0
BBX 48 44 0 -2
BITMAP
0000000F0000
0000003F0000
0000007E0000
000000FE0000
000000EE0000
000001EE0000
000001CE0000
0000038E0000
000003870000
000003870000
000003878000
00000383C000
00000381F000
00000380FC78
00000FF07FF8
00007FFE1FF8
0000FFFF03F0
0003FFFFC0F0
0007FFFFE1E0
000FFFFFFFC0
01FFFFFFFF80
07FFFFFFFFE0
0FFFFFFFFFF0
1FFFFFFFFFF8
3FFFFFFFFFFC
7FFFFFFFFFFE
7FFFFFFFFFFE
FFFFFFFFFFFF
FFFFFFFFFFFF
FFFFFFFFFFFF
FFFFFFFFFFFF
FFFFFFFFFFFF
FFFFFFFFFFFF
FFFFFFFFFFFF
7FFFFFFFFFFE
7FFFFFFFFFFE
3FFFFFFFFFFC
1FFFFFFFFFF8
0FFFFFFFFFF0
07FFFFFFFFE0
01FFFFFFFF80
0000FFFF0000
00007FFE0000
00000FF00000
ENDCHAR
STARTCHAR 0035
ENCODING 53
SWIDTH 1000 0
DWIDTH 48 0
BBX 48 30 0 6
BITMAP
00000FF00000
00007FFE0000
0000FFFF0000
0003FFFFC000
0007FFFFE000
000FFFFFF000
01FFFFFFFF80
07FFFFFFFFE0
0FFFFFFFFFF0
1FFFFFFFFFF8
3FFFFFFFFFFC
7FFFFFFFFFFE
7FFFFFFFFFFE
FFFFFFFFFFFF
FFFFFFFFFFFF
FFFFFFFFFFFF
FFFFFFFFFFFF
FFFFFFFFFFFF
FFFFFFFFFFFF
FFFFFFFFFFFF
7FFFFFFFFFFE
7FFFFFFFFFFE
3FFFFFFFFFFC
1FFFFFFFFFF8
0FFFFFFFFFF0
07FFFFFFFFE0
01FFFFFFFF80
0000FFFF0000
00007FFE0000
00000FF00000
ENDCHAR
STARTCHAR 0036
ENCODING 54
SWIDTH 1000 0
DWIDTH 48 0
BBX 48 45 0 0
BITMAP
00000FF00000
00007FFE0000
0000FFFF0000
0003FFFFC000
0007FFFFE000
000FFFFFF000
01FFFFFFFF80
07FFFFFFFFE0
0FFFFFFFFFF0
1FFFFFFFFFF8
3FFFFFFFFFFC
7FFFFFFFFFFE
7FFFFFFFFFFE
FFFFFFFFFFFF
FFFFFFFFFFFF
FFFFFFFFFFFF
FFFFFFFFFFFF
FFFFFFFFFFFF
FFFFFFFFFFFF
FFFFFFFFFFFF
7FFFFFFFFFFE
7FFFFFFFFFFE
3FFFFFFFFFFC
1FFFFFFFFFF8
0FFFFFFFFFF0
07FFFFFFFFE0
01FFFFFFFF80
0000FFFF0000
00007FFC0000
00000FF00000
00000F800000
00001F800000
00003F000000
00003F800000
00001FC00000
00000FE00000
000007E00000
00000FC00000
00000F800000
00000F000000
00001E000000
00001C000000
000018000000
000030000000
000020000000
ENDCHAR
STARTCHAR 0037
ENCODING 55
SWIDTH 1000 0
DWIDTH 48 0
BBX 48 42 0 0
BITMAP
00000FF00000
00007FFE0000
0000FFFF0000
0003FFFFC000
0007FFFFE000
000FFFFFF000
01FFFFFFFF80
07FFFFFFFFE0
0FFFFFFFFFF0
1FFFFFFFFFF8
3FFFFFFFFFFC
7FFFFFFFFFFE
7FFFFFFFFFFE
FFFFFFFFFFFF
FFFFFFFFFFFF
FFFFFFFFFFFF
FFFFFFFFFFFF
FFFFFFFFFFFF
FFFFFFFFFFFF
FFFFFFFFFFFF
7FFFFFFFFFFE
7FFFFFFFFFFE
3FFFFFFFFFFC
1FFFFFFFFFF8
0FFFFFFFFFF0
07FFFFFFFFE0
01FFFFFFFF80
0000FFFF0000
00007FFE0000
00000FF00000
000000000000
000000000000
000000000000
000001000000
000001800000
000003C00000
000003C00000
000007E00000
000007E00000
000007E00000
000007E00000
000003C00000
ENDCHAR
STARTCHAR 0038
ENCODING 56
SWIDTH 1000 0
DWIDTH 48 0
BBX 48 48 0 -3
BITMAP
00000FF00000
00007FFE0000
0000FFFF0000
0003FFFFC000
0007FFFFE000
000FFFFFF000
01FFFFFFFF80
07FFFFFFFFE0
0FFFFFFFFFF0
1FFFFFFFFFF8
3FFFFFFFFFFC
7FFFFFFFFFFE
7FFFFFFFFFFE
FFFFFFFFFFFF
FFFFFFFFFFFF
FFFFFFFFFFFF
FFFFFFFFFFFF
FFFFFFFFFFFF
FFFFFFFFFFFF
FFFFFFFFFFFF
7FFFFFFFFFFE
7FFFFFFFFFFE
3FFFFFFFFFFC
1FFFFFFFFFF8
0FFFFFFFFFF0
07FFFFFFFFE0
01FFFFFFFF80
0000FFFF0000
00007FFE0000
00000FF00000
001000000000
001800000000
003C00000000
003C00000000
007E00000000
007E00000000
007E00001000
003C00001800
001800003C00
000001003C00
000001807E00
000003C07E00
000003C07E00
000007E07E00
000007E03C00
000007E00000
000007E00000
000003C00000
ENDCHAR
STARTCHAR 0039
ENCODING 57
SWIDTH 1000 0
DWIDTH 48 0
BBX 48 24 0 9
BITMAP
0000001FC000
0000007FF800
000001FFFC00
000003FFFE00
00003FFFFFE0
00007FFFFFF0
0000FFFFFFF8
0001FFFFFFFC
0003FFFFFFFE
1FF3FFFFFFFE
1FF7FFFFFFFF
1FF7FFFFFFFF
0007FFFFFFFF
0007FFFFFFFF
0007FFFFFFFF
FF87FFFFFFFF
FF83FFFFFFFE
FF83FFFFFFFE
0001FFFFFFFC
0000FFFFFFF8
00007FFFFFF0
FFFE1FFFFFC0
FFFE007FF000
FFFE001FC000
ENDCHAR
STARTCHAR 0041
ENCODING 65
SWIDTH 1000 0
DWIDTH 48 0
BBX 28 30 10 6
BITMAP
00060000
000F0000
000F0000
000F0000
000F0000
40060020
E0000070
F00000F0
780001E0
381F81C0
007FE000
01FFF800
03E07C00
07801E00
07000E00
0F000F00
0E000700
0E000700
00000000
00000000
00000000
0FFFFF00
1FFFFF80
0FFFFF00
00000000
00000000
00000000
01FFF800
03FFFC00
01FFF800
ENDCHAR
STARTCHAR 0042
ENCODING 66
SWIDTH 1000 0
DWIDTH 48 0
BBX 40 38 4 2
BITMAP
0000180000
00003C0000
00003C0000
00003C0000
00003C0000
03001800C0
03800001C0
03C00003C0
01E0000780
00E07E0700
0001FF8000
0007FFE000
000F81F000
001E00F800
001C003800
003C003C00
0038001C00
0038001C00
7C38001C3E
FE78001E7F
7C38001C3E
0038001C00
0038001C00
003C003C00
001E007800
000F81F000
0007FFE000
0003FFC000
00C0FE0200
01E0000780
03C00007C0
03800003C0
03001801C0
00003C0000
00003C0000
00003C0000
00003C0000
0000180000
ENDCHAR
STARTCHAR 0043
ENCODING 67
SWIDTH 1000 0
DWIDTH 48 0
BBX 24 23 12 10
BITMAP
01C000
03C000
0FC000
1FC000
3FC000
39C000
79C000
71C000
71C000
E1E000
E0F000
E0F000
E07C00
F03F06
701FFF
7007FF
7801FE
3C001E
1E003C
0F81F8
07FFF0
03FFC0
007F00
ENDCHAR
STARTCHAR 0044
ENCODING 68
SWIDTH 1000 0
DWIDTH 48 0
BBX 36 38 6 1
BITMAP
0000380000
0000380000
0000380000
0000380000
0000380000
0300380000
0780000000
03C0000000
01C0000000
00C1FFFC00
0007FFFE00
000FFFFF80
001F7FFFC0
003CFFFFC0
0038FFFFE0
0079FFFFE0
0071FFFFF0
FC71FFFFF0
FC71FFFFF0
FC71FFFFF0
0071FFFFF0
0071FFFFF0
0038FFFFE0
003CFFFFE0
001E7FFFC0
001F7FFF80
0007FFFF00
0003FFFE00
00C0FFF800
01C0000000
03C0000000
0780000000
0700380000
0000380000
0000380000
0000380000
0000380000
0000380000
ENDCHAR
STARTCHAR 0045
ENCODING 69
SWIDTH 1000 0
DWIDTH 48 0
BBX 45 26 3 10
BITMAP
00001FC00000
0000FFF80000
0001FFFC0000
0007E03E0000
000F800F0000
001F00078000
FFFFFF03C000
FFFFFF01C000
FFFFFF00E000
00380000E000
00700000E000
007000007000
1FFFFFFFFFF8
1FFFFFFFFFF8
1FFFFFFFFFF8
007000007000
00380000E000
FFFFFFFFFC00
FFFFFFFFFE00
FFFFFFFFFC00
001F00078000
000F800F0000
0007E03E0000
0001FFFC0000
0000FFF80000
00001FC00000
ENDCHAR
STARTCHAR 0046
ENCODING 70
SWIDTH 1000 0
DWIDTH 48 0
BBX 39 27 6 6
BITMAP
0000780000
0000FE0000
0001FE0000
0001FF0000
0001FF0000
0001FF0000
FFFFFE00F0
FFFFFE01FC
FFFFF803FC
00000003FE
00000003FE
00000003FE
FFFFFFFFFC
FFFFFFFFFC
FFFFFFFFF0
0000000000
0000000000
0000000000
FFFFFFE000
FFFFFFF800
FFFFFFF800
000007FC00
000007FC00
000007FC00
000007F800
000003F800
000001E000
ENDCHAR
STARTCHAR 0047
ENCODING 71
SWIDTH 1000 0
DWIDTH 48 0
BBX 26 30 11 6
BITMAP
001E0000
003F0000
003F0000
003F0000
003F0000
003F0000
703F0380
FCFFCFC0
FFFFFFC0
FFFFFFC0
FFFFFFC0
7FFFFF80
1FE1FE00
0FC0FC00
0FC0FC00
0FC0FC00
0FC0FC00
1FE1FE00
7FFFFF80
FFFFFFC0
FFFFFFC0
FFFFFFC0
FCFFCFC0
703F0380
003F0000
003F0000
003F0000
003F0000
003F0000
001E0000
ENDCHAR
STARTCHAR 0048
ENCODING 72
SWIDTH 1000 0
DWIDTH 48 0
BBX 48 48 0 -3
BITMAP
000038000000
000038000000
000038000000
000038000000
000038000000
000038000000
030000018000
07800003C000
03C000078000
00C0FE070000
0003FF860000
0007FFC00000
000F83E00000
001E00F00000
003C00780000
003800380000
0078003C0000
0070001C0000
FC700FFC7E00
FC707FFC7E00
FC70FFFF7E00
0073F81FC000
007FC003E000
003F8001F000
01FF0000FF80
07FE00007FE0
0FFC00003FF0
1F0C000000F8
3C000000003C
78000000001E
70000000000E
F0000000000F
E00000000007
E00000000007
E00000000007
E00000000007
E00000000007
F0000000000F
70000000000E
78000000001E
3C020000403C
1F070000E0F8
0FFF8001FFF0
07FFE007FFE0
01FFF81FFF80
0000FFFF0000
00007FFE0000
00000FF00000
ENDCHAR
STARTCHAR 0049
ENCODING 73
SWIDTH 1000 0
DWIDTH 48 0
BBX 48 44 0 -3
BITMAP
000000060000
0000001F0000
0000003F0000
0000007E0000
000000FE0000
000001EE0000
000001CE0000
0000038E0000
000003870000
000003870000
000003838000
00000383C000
00000381E000
00000380F838
00000FE07FF8
00003FFC3FF8
0000FFFF07F0
0003F81FC0F0
0007C003E1E0
00078001F7C0
01FF0000FF80
07FE00007FE0
0FFC00003FF0
1F00000000F8
3C000000003C
78000000001E
70000000000E
F00000000007
E00000000007
E00000000007
E00000000007
E00000000007
E00000000007
70000000000F
70000000000E
78000000001E
3C020000403C
1F070000E0F8
0FFF8001FFF0
07FFE003FFE0
01FDF81FFF80
0000FFFF0000
00007FFE0000
00000FF00000
ENDCHAR
STARTCHAR 004A
ENCODING 74
SWIDTH 1000 0
DWIDTH 48 0
BBX 40 38 4 4
BITMAP
0000180000
00003C0000
00003C0000
00003C0000
00003C0000
03001801C0
03800003C0
03C00003C0
01E0000780
00E07E0700
0001FF8000
0007FFE000
000F81F000
001E00F800
001C003800
003C003C00
0038001C00
0038001C00
7C38001C3E
FE78001E7F
7C38001C3E
0000000000
0000000000
7FFFFFFFFE
FFFFFFFFFF
7FFFFFFFFE
0000000000
0000000000
0000000000
7FFFFFFFFE
FFFFFFFFFF
7FFFFFFFFE
0000000000
0000000000
0000000000
7FFFFFFFFE
FFFFFFFFFF
7FFFFFFFFE
ENDCHAR
STARTCHAR 004B
ENCODING 75
SWIDTH 1000 0
DWIDTH 48 0
BBX 40 35 4 4
BITMAP
0000E00000
0001F00000
0007E00000
000FE00000
001FE00000
001EE00000
003CE00000
0038E00000
0038F00000
0038700000
0078780000
00783C0000
00383E0000
00381F8300
00380FFF80
003C03FF80
001E00FF00
0000000000
0000000000
0000000000
7FFFFFFFFE
FFFFFFFFFF
7FFFFFFFFE
0000000000
0000000000
0000000000
7FFFFFFFFE
FFFFFFFFFF
7FFFFFFFFE
0000000000
0000000000
0000000000
7FFFFFFFFE
FFFFFFFFFF
7FFFFFFFFE
ENDCHAR
STARTCHAR 004C
ENCODING 76
SWIDTH 1000 0
DWIDTH 48 0
BBX 48 36 0 3
BITMAP
00000FF00000
00007FFE0000
0000FFFF0000
0003F81FC000
0007C003E000
000F8001F000
01FF0000FF80
07FE00007FE0
0FFC00003FF0
1F00000000F8
3C000000003C
78000000001E
70000000000E
F0000000000F
E00000000007
E00000000007
E00000000007
E00000000007
000000000000
000000000000
000000000000
FFFFFFFFFFFF
FFFFFFFFFFFF
FFFFFFFFFFFF
000000000000
000000000000
000000000000
FFFFFFFFFFFF
FFFFFFFFFFFF
FFFFFFFFFFFF
000000000000
000000000000
000000000000
FFFFFFFFFFFF
FFFFFFFFFFFF
FFFFFFFFFFFF
ENDCHAR
STARTCHAR 004D
ENCODING 77
SWIDTH 1000 0
DWIDTH 48 0
BBX 30 21 9 12
BITMAP
FFFFFFFC
FFFFFFFC
FFFFFFFC
00000000
00000000
00000000
FFFFFFFC
FFFFFFFC
FFFFFFFC
00000000
00000000
00000000
FFFFFFFC
FFFFFFFC
FFFFFFFC
00000000
00000000
00000000
FFFFFFFC
FFFFFFFC
FFFFFFFC
ENDCHAR
STARTCHAR 004E
ENCODING 78
SWIDTH 1000 0
DWIDTH 48 0
BBX 48 30 0 6
BITMAP
00000FF00000
00007FFE0000
0000FFFF0000
0003F81FC000
0007C003E000
000F8001F000
01FF0000FF80
07FE00007FE0
0FFC00003FF0
1F00000000F8
3C000000003C
78000000001E
70000000000E
F0000000000F
E00000000007
E00000000007
E00000000007
E00000000007
E00000000007
F0000000000F
70000000000E
78000000001E
3C000000003C
1F070000E0F8
0FFF8001FFF0
07FFC003FFE0
01FFF81FFF80
0000FFFF0000
00007FFE0000
00000FF00000
ENDCHAR
STARTCHAR 004F
ENCODING 79
SWIDTH 1000 0
DWIDTH 48 0
BBX 48 45 0 0
BITMAP
00000FF00000
00007FFE0000
0000FFFF0000
0003F81FC000
0007C003E000
000F8001F000
01FF0000FF80
07FE00007FE0
0FFC00003FF0
1F04000020F8
3C000000003C
78000000001E
70000000000E
F0000000000F
E00000000007
E00000000007
E00000000007
E00000000007
E00000000007
F0000000000F
70000000000E
78000000001E
3C000000003C
1F070000E0F8
0FFF8001FFF0
07FFC003FFE0
01FFF81FFF80
0000FFFF0000
00007FFC0000
00000FF00000
00000F800000
00001F800000
00003F000000
00003F800000
00001FC00000
00000FE00000
000007E00000
00000FC00000
00000F800000
00000F000000
00001E000000
00001C000000
000018000000
000030000000
000020000000
ENDCHAR
STARTCHAR 0050
ENCODING 80
SWIDTH 1000 0
DWIDTH 48 0
BBX 48 45 0 0
BITMAP
00000FF00000
00007FFE0000
0000FFFF0000
0003F81FC000
0007C003E000
000F8001F000
01FF0000FF80
07FE00007FE0
0FFC00003FF0
1F04000000F8
3C000000003C
78000000001E
70000000000E
F0000000000F
E00000000007
E00000000007
E00000000007
E00000000007
E00000000007
F0000000000F
70000000000E
78000000001E
3C000000003C
1F070000E0F8
0FFF8021FFF0
07FFC063FFE0
01FFF0C7FF80
0000E1C70000
000003C40000
000007800000
00000F800000
00001F800000
00003F000000
00003F800000
00001FC00000
00000FE00000
000007E00000
00000FC00000
00000F800000
00000F000000
00001E000000
00001C000000
000018000000
000030000000
000020000000
ENDCHAR
STARTCHAR 0051
ENCODING 81
SWIDTH 1000 0
DWIDTH 48 0
BBX 48 42 0 0
BITMAP
00000FF00000
00007FFE0000
0000FFFF0000
0003F81FC000
0007C003E000
000F8001F000
01FF0000FF80
07FE00007FE0
0FFC00003FF0
1F00000000F8
3C000000003C
78000000001E
70000000000E
F0000000000F
E00000000007
E00000000007
E00000000007
E00000000007
E00000000007
F0000000000F
70000000000E
78000000001E
3C000000003C
1F070000E0F8
0FFF8001FFF0
07FFC003FFE0
01FFF81FFF80
0000FFFF0000
00007FFE0000
00000FF00000
000000000000
000000000000
000000000000
000001000000
000001800000
000003C00000
000003C00000
000007E00000
000007E00000
000007E00000
000007E00000
000003C00000
ENDCHAR
STARTCHAR 0052
ENCODING 82
SWIDTH 1000 0
DWIDTH 48 0
BBX 48 48 0 -3
BITMAP
00000FF00000
00007FFE0000
0000FFFF0000
0003F81FC000
0007C003E000
000F8001F000
01FF0000FF80
07FE00007FE0
0FFC00003FF0
1F04000020F8
3C000000003C
78000000001E
70000000000E
F0000000000F
E00000000007
E00000000007
E00000000007
E00000000007
E00000000007
F0000000000F
70000000000E
78000000001E
3C000000003C
1F070000E0F8
0FFF8001FFF0
07FFC003FFE0
01FFF80FFF80
0000FFFF0000
00007FFE0000
00000FF00000
001000000000
001800000000
003C00000000
003C00000000
007E00000000
007E00000000
007E00001000
003C00001800
001800003C00
000001003C00
000001807E00
000003C07E00
000003C07E00
000007E07E00
000007E03C00
000007E00000
000007E00000
000003C00000
ENDCHAR
STARTCHAR 0053
ENCODING 83
SWIDTH 1000 0
DWIDTH 48 0
BBX 48 24 0 9
BITMAP
0000001FC000
0000007FF000
000001FFFC00
000003F07E00
00001FC01FC0
00007F800FF0
0000FF0007F8
0001F000007C
0003C000001E
1FF38000000E
1FF78000000F
1FF700000007
000700000007
000700000007
000700000007
FF878000000F
FF838000000E
FF83C000001E
0001F000007C
0000FFC01FF8
00007FE03FF0
FFFE1FFFFFC0
FFFE007FF000
FFFE001FC000
ENDCHAR
STARTCHAR 0054
ENCODING 84
SWIDTH 1000 0
DWIDTH 48 0
BBX 48 42 0 0
BITMAP
0000001FC000
0000007FF000
000001FFFC00
000003F07E00
00001FC01FC0
00007F0007F0
0000FF0007F8
0001F000007C
0003C000001E
1FF38000000E
1FF780000007
1FF700000007
000700000007
000700000007
000700000007
FF878000000F
FF838000000E
FF83C000001E
0001F000007C
0000FFC01FF8
00007FF07FF0
FFFE1FFFFFC0
FFFE007FF000
FFFE001FC000
000000000000
000000000000
000000000000
000001000000
000001800000
000003C00000
000003C00000
000007E00000
000007E00000
000007E01000
000007E01800
000003C03C00
000000003C00
000000007E00
000000007E00
000000007E00
000000007E00
000000003C00
ENDCHAR
STARTCHAR 0055
ENCODING 85
SWIDTH 1000 0
DWIDTH 48 0
BBX 48 48 0 -3
BITMAP
00000FF00000
00007FFE0000
0000FFFF0000
0003F81FC000
0007C003E000
000F8001F000
01FF0000FF80
07FE00007FE0
0FFC00003FF0
1F04000020F8
3C000000003C
78000000001E
70000000000E
F0000000000F
E00000000007
E00000000007
E00000000007
E00000000007
E00000000007
F0000000000F
70000000000E
78000000001E
3C000000003C
1F070000E0F8
0FFF8001FFF0
07FFC003FFE0
01FFF80FFF80
0000FFFF0000
00007FFE0000
00000FF00000
000000000000
000001800000
000003C00000
000003C00000
000023C40000
000077EE0000
00007FFE0000
00007FFE0000
00001E780000
00001C380000
00001E780000
00007FFE0000
00007FFE0000
00007FFE0000
000023C40000
000003C00000
000003C00000
000001800000
ENDCHAR
STARTCHAR 0056
ENCODING 86
SWIDTH 1000 0
DWIDTH 48 0
BBX 48 39 0 6
BITMAP
00000FF00000
00007FFE0000
0000FFFF0000
0003F81FC000
0007C003E000
000F8001F000
01FF0000FF80
07FE00007FE0
0FFC00003FF0
1F04000000F8
3C000000003C
78000000001E
70000000000E
F0000000000F
E00000000007
E00000000007
E00000000007
E00000000007
E00000000007
F0000000000F
70000000000E
78000000001E
3C000000003C
1F0703C0E0F8
0FFE03C07FF0
07FC03C03FE0
01F877EE1F80
00007FFE0000
00007FFE0000
00001E780000
00001C380000
00001E780000
00007FFE0000
00007FFE0000
000077EE0000
000023C40000
000003C00000
000003C00000
000001800000
ENDCHAR
STARTCHAR 0057
ENCODING 87
SWIDTH 1000 0
DWIDTH 48 0
BBX 48 48 0 -3
BITMAP
00000FF00000
00007FFE0000
0000FFFF0000
0003F81FC000
0007C003E000
000F8001F000
01FF0000FF80
07FE00007FE0
0FFC00003FF0
1F00000000F8
3C000000003C
78000000001E
70000000000E
F0000000000F
E00000000007
E00000000007
E00000000007
E00000000007
E00000000007
F0000000000F
70000000000E
78000000001E
3C000000003C
1F070000E0F8
0FFF8001FFF0
07FFC003FFE0
01FFF81FFF80
0000FFFF0000
00007FFE0000
00800FF00000
08C000000000
0F8000000000
07F003C00100
06F003C00310
1EC003C001F0
1FC077EE0FE0
03E07FFE0F60
03207FFE0278
02001E7803F8
00001C3807C0
00001E7804C0
00003FFC0040
00007FFE0000
00007FFE0000
000023C40000
000003C00000
000003C00000
000001800000
ENDCHAR
STARTCHAR 0058
ENCODING 88
SWIDTH 1000 0
DWIDTH 48 0
BBX 48 48 0 -3
BITMAP
00000FF00000
00007FFE0000
0000FFFF0000
0003F00FC000
0007C003E000
000F0000F000
01FE00007F80
07FE00007FE0
0FFC00003FF0
1F00000000F8
3C000000003C
78000000001E
70000000000E
F0000000000F
E00000000007
E00000000007
E00000000007
E00000000007
E00000000007
F0000000000F
70000000000E
78000000001E
3C000000003C
1F070000E0F8
0FFF8001FFF0
07FFC003FFE0
01FFF81FFF80
0000FFFF0000
00007FFE0000
00000FF00000
01E000000780
03F000000FC0
03F000000FC0
03F003C00FC0
03F007E00FC0
01E007E00780
000007E00000
000007E00000
000003C00000
000000000000
000000000000
000000000000
00078001E000
000FC003F000
000FC003F000
000FC003F000
000FC003F000
00078001E000
ENDCHAR
STARTCHAR 0059
ENCODING 89
SWIDTH 1000 0
DWIDTH 48 0
BBX 48 38 0 -3
BITMAP
0000003FC000
000000FFF000
000001FFF800
000007E07E00
00003F801FC0
0000FF000FF0
0003FE0007FC
0003C000003C
00078FF0001E
000F7FFE000E
000EFFFF0007
000FF01FC007
000FC003E007
000F8001F007
01FF0000FF87
07FE00007FEE
0FFC00003FFE
1F04000000FC
3C000000003C
78000000001E
70000000000E
F0000000000F
E00000000007
E00000000007
E00000000007
E00000000007
E00000000007
F0000000000F
70000000000E
78000000001E
3C020000403C
1F070000E0F8
0FFF8001FFF0
07FFE007FFE0
01FFF81FFF80
0000FFFF0000
00007FFE0000
00000FF00000
ENDCHAR
STARTCHAR 005A
ENCODING 90
SWIDTH 1000 0
DWIDTH 48 0
BBX 48 48 0 -3
BITMAP
0000001F8000
0000007FE000
000001FFF800
000003E07C00
000007801E00
00007F000FE0
0001FE0007F8
0003FE0007FC
0007CFF0003E
00077FFE000E
000EFFFF000F
000FF01FC007
000FC003E007
000F8001F007
01FF0000FF87
07FE00007FEE
0FFC00003FFE
1F00000000FC
3C000000003C
78000000001E
70000000000E
F0000000000F
E00000000007
E00000000007
E00000000007
E00000000007
E00000000007
F0000000000F
70000000000E
78000000001E
3C000000003C
1F070000E0F8
0FFF8001FFF0
07FFC003FFE0
01FFF81FFF80
0000FFFF0000
00007FFE0000
00000FF00000
00001F000000
00003F800000
00000FC00000
000007E00000
000007C00000
00000F800000
00000E000000
00001C000000
000010000000
000020000000
ENDCHAR
STARTCHAR 00A0
ENCODING 160
SWIDTH 500 0
DWIDTH 24 0
BBX 0 0 0 0
BITMAP
ENDCHAR
STARTCHAR 2000
ENCODING 8192
SWIDTH 479 0
DWIDTH 23 0
BBX 0 0 0 0
BITMAP
ENDCHAR
STARTCHAR 2001
ENCODING 8193
SWIDTH 937 0
DWIDTH 45 0
BBX 0 0 0 0
BITMAP
ENDCHAR
STARTCHAR 2002
ENCODING 8194
SWIDTH 479 0
DWIDTH 23 0
BBX 0 0 0 0
BITMAP
ENDCHAR
STARTCHAR 2003
ENCODING 8195
SWIDTH 937 0
DWIDTH 45 0
BBX 0 0 0 0
BITMAP
ENDCHAR
STARTCHAR 2004
ENCODING 8196
SWIDTH 312 0
DWIDTH 15 0
BBX 0 0 0 0
BITMAP
ENDCHAR
STARTCHAR 2005
ENCODING 8197
SWIDTH 229 0
DWIDTH 11 0
BBX 0 0 0 0
BITMAP
ENDCHAR
STARTCHAR 2006
ENCODING 8198
SWIDTH 166 0
DWIDTH 8 0
BBX 0 0 0 0
BITMAP
ENDCHAR
STARTCHAR 2007
ENCODING 8199
SWIDTH 166 0
DWIDTH 8 0
BBX 0 0 0 0
BITMAP
ENDCHAR
STARTCHAR 2008
ENCODING 8200
SWIDTH 125 0
DWIDTH 6 0
BBX 0 0 0 0
BITMAP
ENDCHAR
STARTCHAR 2009
ENCODING 8201
SWIDTH 187 0
DWIDTH 9 0
BBX 0 0 0 0
BITMAP
ENDCHAR
STARTCHAR 200A
ENCODING 8202
SWIDTH 41 0
DWIDTH 2 0
BBX 0 0 0 0
BITMAP
ENDCHAR
STARTCHAR 202F
ENCODING 8239
SWIDTH 187 0
DWIDTH 9 0
BBX 0 0 0 0
BITMAP
ENDCHAR
STARTCHAR 205F
ENCODING 8287
SWIDTH 229 0
DWIDTH 11 0
BBX 0 0 0 0
BITMAP
ENDCHAR
STARTCHAR E000
ENCODING 57344
SWIDTH 250 0
DWIDTH 12 0
BBX 0 0 0 0
BITMAP
ENDCHAR
ENDFONT
